<svg version="1.1" xmlns="http://www.w3.org/2000/svg" xmlns:xlink="http://www.w3.org/1999/xlink" width="800" height="800"><defs/><g transform="scale(2,2)"><g id="background-68b1c582"><rect fill="white" stroke="none" x="0" y="0" width="400" height="400" class="dcg-svg-background"/></g><g id="graphpaper-68b1c582"><g id="grid-68b1c582"><g><path fill="none" stroke="rgb(0,0,0)" class="dcg-svg-minor-gridline" paint-order="fill stroke markers" d=" M 200.5 0 L 200.5 400" stroke-opacity="0.2" stroke-miterlimit="10" stroke-dasharray=""/><path fill="none" stroke="rgb(0,0,0)" class="dcg-svg-minor-gridline" paint-order="fill stroke markers" d=" M 366.5 0 L 366.5 400" stroke-opacity="0.2" stroke-miterlimit="10" stroke-dasharray=""/><path fill="none" stroke="rgb(0,0,0)" class="dcg-svg-minor-gridline" paint-order="fill stroke markers" d=" M 0 327.5 L 400 327.5" stroke-opacity="0.2" stroke-miterlimit="10" stroke-dasharray=""/><path fill="none" stroke="rgb(0,0,0)" class="dcg-svg-major-gridline" paint-order="fill stroke markers" d=" M 200.5 0 L 200.5 400" stroke-opacity="0.2500000000000001" stroke-miterlimit="10" stroke-dasharray=""/><path fill="none" stroke="rgb(0,0,0)" class="dcg-svg-major-gridline" paint-order="fill stroke markers" d=" M 366.5 0 L 366.5 400" stroke-opacity="0.2500000000000001" stroke-miterlimit="10" stroke-dasharray=""/><path fill="none" stroke="rgb(0,0,0)" class="dcg-svg-major-gridline" paint-order="fill stroke markers" d=" M 0 327.5 L 400 327.5" stroke-opacity="0.2500000000000001" stroke-miterlimit="10" stroke-dasharray=""/></g></g><g id="axis-68b1c582"><g id="yaxis-68b1c582"><title>score</title><g><path fill="none" stroke="rgb(0,0,0)" class="dcg-svg-axis-line" paint-order="fill stroke markers" d=" M 33 0 L 33 400" stroke-opacity="0.9" stroke-miterlimit="10" stroke-width="1.5" stroke-dasharray=""/></g></g><g id="xaxis-68b1c582"><title>p</title><g><path fill="none" stroke="rgb(0,0,0)" class="dcg-svg-axis-line" paint-order="fill stroke markers" d=" M 0 145 L 400 145" stroke-opacity="0.9" stroke-miterlimit="10" stroke-width="1.5" stroke-dasharray=""/></g></g><g><g class="dcg-svg-axis-value"><text fill="none" stroke="#ffffff" font-family="Arial" font-size="14px" font-style="normal" font-weight="normal" text-decoration="normal" x="24.44026692708337" y="161.26254545454543" text-anchor="middle" stroke-miterlimit="2" stroke-width="3" stroke-dasharray="">0</text><text fill="#000000" stroke="none" font-family="Arial" font-size="14px" font-style="normal" font-weight="normal" text-decoration="normal" x="24.44026692708337" y="161.26254545454543" text-anchor="middle">0</text></g><g class="dcg-svg-axis-value"><text fill="none" stroke="#ffffff" font-family="Arial" font-size="14px" font-style="normal" font-weight="normal" text-decoration="normal" x="200" y="161.26254545454543" text-anchor="middle" stroke-miterlimit="2" stroke-width="3" stroke-dasharray="">0.5</text><text fill="#000000" stroke="none" font-family="Arial" font-size="14px" font-style="normal" font-weight="normal" text-decoration="normal" x="200" y="161.26254545454543" text-anchor="middle">0.5</text></g><g class="dcg-svg-axis-value"><text fill="none" stroke="#ffffff" font-family="Arial" font-size="14px" font-style="normal" font-weight="normal" text-decoration="normal" x="366.66666666666663" y="161.26254545454543" text-anchor="middle" stroke-miterlimit="2" stroke-width="3" stroke-dasharray="">1</text><text fill="#000000" stroke="none" font-family="Arial" font-size="14px" font-style="normal" font-weight="normal" text-decoration="normal" x="366.66666666666663" y="161.26254545454543" text-anchor="middle">1</text></g><g class="dcg-svg-axis-value"><text fill="none" stroke="#ffffff" font-family="Arial" font-size="14px" font-style="normal" font-weight="normal" text-decoration="normal" x="22.10921223958337" y="331.08072727272724" text-anchor="middle" stroke-miterlimit="2" stroke-width="3" stroke-dasharray="">-5</text><text fill="#000000" stroke="none" font-family="Arial" font-size="14px" font-style="normal" font-weight="normal" text-decoration="normal" x="22.10921223958337" y="331.08072727272724" text-anchor="middle">-5</text></g></g><g class="dcg-svg-axis-label"><text fill="none" stroke="#ffffff" font-family="Times" font-size="20px" font-style="italic" font-weight="normal" text-decoration="normal" x="375" y="178.45454545454544" text-anchor="start" stroke-miterlimit="2" stroke-width="3" stroke-dasharray="">p</text><text fill="#000000" stroke="none" font-family="Times" font-size="20px" font-style="italic" font-weight="normal" text-decoration="normal" x="375" y="178.45454545454544" text-anchor="start">p</text></g><g class="dcg-svg-axis-label" transform="translate(8.885091145833371,56.5703125) rotate(-90,0,0)"><text fill="none" stroke="#ffffff" font-family="Arial" font-size="17px" font-style="normal" font-weight="normal" text-decoration="normal" x="0" y="0" text-anchor="start" stroke-miterlimit="2" stroke-width="3" stroke-dasharray="">score</text><text fill="#000000" stroke="none" font-family="Arial" font-size="17px" font-style="normal" font-weight="normal" text-decoration="normal" x="0" y="0" text-anchor="start">score</text></g></g></g><g id="expressions-68b1c582"><g id="sketch-68b1c582"><title>Expression 1</title><path fill="#c74440" stroke="none" paint-order="stroke fill markers" d="" fill-opacity="0.4"/><g><path fill="none" stroke="#c74440" class="dcg-svg-curve" paint-order="fill stroke markers" d=" M 33.4960273833673 405.5 L 33.4960273833673 405.5 L 33.496093750000036 397.50806565816197 L 33.78906250000004 360.0673595788469 L 34.17968750000004 337.5568429095298 L 34.66796875000004 320.99409641197246 L 35.25390625000004 307.75899178646665 L 35.937500000000036 296.68665757671533 L 36.71875000000004 287.1461388688066 L 37.59765625000004 278.7531779939055 L 38.57421875000004 271.254740110876 L 39.648437500000036 264.47460214437183 L 40.820312500000036 258.28474214946755 L 42.187500000000036 252.18573279045657 L 43.652343750000036 246.61847069659171 L 45.21484375000004 241.49135870731132 L 46.972656250000036 236.47413811314237 L 48.925781250000036 231.60760438627773 L 51.07421875000004 226.91359721346578 L 53.417968750000036 222.40147978647872 L 55.95703125000004 218.07264990795494 L 58.78906250000003 213.7838173632088 L 62.01171875000003 209.44916698535906 L 65.52734375000003 205.2441958694851 L 69.23828125000003 201.27711631927457 L 73.24218750000003 197.43264005590532 L 77.44140625000003 193.79465398980915 L 81.93359375000003 190.26788801797684 L 86.81640625000003 186.78656727259218 L 92.08984375000004 183.3670489915117 L 97.75390625000003 180.0204644520359 L 103.90625000000003 176.70361292632788 L 110.54687500000001 173.43348937876135 L 117.67578125000003 170.22220136259793 L 125.39062500000001 167.03944330971234 L 133.78906250000003 163.8646794585617 L 142.87109375000003 160.71732639835363 L 152.734375 157.58210489662537 L 163.37890625000003 154.4767585393883 L 175.00000000000003 151.36432470900996 L 187.59765625000003 148.26648349330782 L 201.26953125000003 145.17860642868737 L 216.11328125 142.09864912221852 L 232.2265625 139.02646057701497 L 249.70703125 135.96322959970803 L 268.65234375 132.91104454666385 L 289.2578125 129.85866952915444 L 311.62109375 126.81236807299342 L 335.9375 123.76619050697674 L 362.40234375 120.71739355925438 L 391.11328124999994 117.67555210780554 L 400 116.78336871402652" stroke-linecap="round" stroke-linejoin="round" stroke-miterlimit="10" stroke-width="2.5" stroke-dasharray=""/></g></g><g id="sketch-68b1c582"><title>Expression 2</title><path fill="#2d70b3" stroke="none" paint-order="stroke fill markers" d="" fill-opacity="0.4"/><g><path fill="none" stroke="#2d70b3" class="dcg-svg-curve" paint-order="fill stroke markers" d=" M 4.263256414560601e-14 116.78336871402652 L 4.263256414560601e-14 116.78336871402652 L 30.273437500000036 119.91690942496083 L 58.007812500000036 123.04578816623598 L 83.49609375000003 126.17986772821862 L 106.93359375000001 129.32150359000988 L 128.41796875000003 132.46111754299366 L 148.14453125 135.60394523981097 L 166.2109375 138.741905074513 L 182.81250000000003 141.88556141310818 L 198.04687500000003 145.03088664654635 L 212.109375 148.19748953832706 L 225.00000000000003 151.36432470901 L 236.81640625 154.5314133137508 L 247.75390625 157.73111604502802 L 257.8125 160.9449725028713 L 266.9921875 164.14858697512452 L 275.48828125 167.38828882812527 L 283.30078125 170.64569570305557 L 290.52734375 173.94294368906816 L 297.16796875 177.26137426803012 L 303.3203125 180.63194382864012 L 308.984375 184.0380213406737 L 314.2578125 187.5243730929107 L 319.140625 191.08065466658803 L 323.6328125 194.6912253680699 L 327.83203125 198.42484712493228 L 331.73828125 202.27985365101293 L 335.3515625 206.25073699519444 L 338.76953125 210.45351997948268 L 341.89453125 214.7736858244316 L 344.7265625 219.18834934986359 L 347.265625 223.66069276248015 L 349.51171875 228.13487889062517 L 351.5625 232.76455148390184 L 353.41796875 237.53078300330773 L 355.078125 242.39923589751 L 356.640625 247.66581582036292 L 358.0078125 252.9968512455221 L 359.27734375 258.76217092916943 L 360.44921875 265.04131963588827 L 361.5234375 271.93871581842143 L 362.5 279.5956165132342 L 363.37890625 288.21051640699284 L 364.16015625 298.07651986108704 L 364.74609374999994 307.7589917864668 L 365.33203125 320.9940964119734 L 365.8203125 337.55684290953116 L 366.11328125 353.00714087190704 L 366.40625 380.41702459468786 L 366.5034321109638 405.5" stroke-linecap="round" stroke-linejoin="round" stroke-miterlimit="10" stroke-width="2.5" stroke-dasharray=""/></g></g></g><g id="labels-68b1c582"/><g id="labels-68b1c582"/></g></svg>